<?xml version="1.0" encoding="UTF-8"?>
<svg version="1.1" xmlns="http://www.w3.org/2000/svg" width="512" height="512">
<path d="M0 0 C1.76659357 -0.00435222 3.53318526 -0.00953706 5.29977417 -0.01548767 C10.07630555 -0.02882825 14.85275757 -0.02946229 19.62930393 -0.02692437 C23.62072786 -0.02585215 27.61213589 -0.03074399 31.60355639 -0.03552979 C41.01664093 -0.04660602 50.42968555 -0.04707179 59.84277344 -0.04101562 C69.55237854 -0.03496494 79.26183912 -0.04731891 88.97141957 -0.06858569 C97.31556854 -0.08618942 105.65967144 -0.09220534 114.0038383 -0.08894795 C118.98438246 -0.08713435 123.96482332 -0.08977981 128.94535065 -0.10366249 C133.62398433 -0.11621762 138.30239176 -0.11431876 142.98102188 -0.1012516 C144.69791617 -0.09888191 146.41482628 -0.10163453 148.13170242 -0.10987473 C150.47472318 -0.12031004 152.81698005 -0.11226823 155.15997314 -0.0995636 C156.47105671 -0.09973134 157.78214027 -0.09989908 159.13295364 -0.10007191 C163.642298 0.39674515 166.22687464 1.90170246 169.32324219 5.15356445 C171.51380496 8.99058247 171.02755565 12.9941006 170.53417969 17.2746582 C169.12947815 21.1582448 168.07068426 22.00162337 164.37909412 23.88032627 C160.57084337 25.43549126 157.2068223 25.64836262 153.07804871 25.64646912 C152.00160291 25.65220596 152.00160291 25.65220596 150.90341073 25.6580587 C148.51605267 25.6672909 146.12928267 25.65538603 143.74194336 25.64355469 C142.02316549 25.64602447 140.30438913 25.64986468 138.58561707 25.65496826 C134.89210675 25.66329063 131.1987507 25.66251187 127.50523949 25.65478325 C121.65880106 25.64317458 115.81255995 25.65538485 109.96614075 25.67140198 C95.44401228 25.70755401 80.92188863 25.71382875 66.39971924 25.71130371 C55.11313464 25.70959063 43.82671183 25.71676895 32.5401724 25.75128227 C26.73479005 25.76803476 20.92980296 25.76631718 15.12442243 25.75045955 C11.50416096 25.74464313 7.88408498 25.7554377 4.26385689 25.77070618 C2.5926052 25.77441744 0.9213218 25.77136787 -0.74990082 25.76083565 C-11.91405074 25.69519922 -22.24298607 26.31404638 -30.86425781 34.30200195 C-36.59582792 41.36161879 -39.58485449 49.54427021 -39.59724808 58.56279278 C-39.60108922 59.6150831 -39.60493037 60.66737342 -39.60888791 61.75155133 C-39.60802143 62.90134136 -39.60715495 64.0511314 -39.60626221 65.23576355 C-39.60923333 66.46212928 -39.61220445 67.688495 -39.61526561 68.95202333 C-39.622439 72.35330966 -39.62512439 75.75454548 -39.62586308 79.15583575 C-39.6277161 82.82537247 -39.63526471 86.4948983 -39.64199829 90.16442871 C-39.6555722 98.18727397 -39.6616049 106.21011422 -39.66600895 114.23296905 C-39.66877303 119.24412819 -39.67301069 124.25528541 -39.67751312 129.26644325 C-39.68970468 143.14555204 -39.70000414 157.02465928 -39.70338821 170.90377331 C-39.70360778 171.79183307 -39.70382735 172.67989283 -39.70405357 173.59486349 C-39.70427184 174.48502774 -39.70449012 175.375192 -39.70471501 176.29233092 C-39.70515848 178.09609171 -39.70560504 179.8998525 -39.70605469 181.70361328 C-39.70627612 182.59833772 -39.70649755 183.49306215 -39.70672569 184.41489945 C-39.71067277 198.90903474 -39.72812456 213.40311973 -39.75141421 227.89723559 C-39.77514171 242.78422754 -39.78759071 257.67119426 -39.78875613 272.55820543 C-39.78967212 280.91423521 -39.79540517 289.27019946 -39.81357574 297.62621117 C-39.82899563 304.74227072 -39.83408608 311.85824448 -39.82583764 318.97431757 C-39.82193777 322.60290831 -39.82282809 326.23132635 -39.83689499 329.85989571 C-39.85202774 333.79954933 -39.8437477 337.73896152 -39.83331299 341.67863464 C-39.84136939 342.81727107 -39.8494258 343.95590749 -39.85772634 345.12904805 C-39.79111153 355.89814701 -37.49065429 364.92750254 -30.46582031 373.2746582 C-22.4308389 381.00134297 -12.46375278 381.71706421 -1.82714844 381.65560913 C-0.57624168 381.6602891 0.67466507 381.66496907 1.96347809 381.66979086 C5.41473327 381.68225445 8.86573792 381.67615188 12.31699371 381.66683221 C16.0471207 381.66002289 19.77720568 381.67053225 23.50732422 381.67877197 C30.80638709 381.69209147 38.10535726 381.68923954 45.40442371 381.68053405 C51.33806428 381.67375088 57.27167893 381.67284352 63.20532227 381.6761055 C64.05076489 381.6765652 64.89620751 381.6770249 65.76726961 381.67749853 C67.48492623 381.67845773 69.20258284 381.67943037 70.92023945 381.6804163 C87.01571071 381.68896497 103.11113067 381.67914428 119.20659351 381.6630152 C133.00852293 381.64961249 146.81037664 381.65194073 160.61230469 381.66577148 C176.65132645 381.68183654 192.69030328 381.68814105 208.72933197 381.67893469 C210.44056701 381.67797908 212.15180206 381.67703596 213.86303711 381.6761055 C215.12588177 381.67541126 215.12588177 381.67541126 216.41423845 381.67470299 C222.33875135 381.67211588 228.26323567 381.67647809 234.18774414 381.68354416 C241.41061313 381.69196964 248.63338435 381.68965701 255.85624218 381.67370193 C259.53940904 381.66583329 263.22241306 381.66270347 266.90557861 381.67264938 C270.90236263 381.68327872 274.89873768 381.6705621 278.89550781 381.65560913 C280.05378334 381.6623013 281.21205887 381.66899346 282.40543365 381.67588842 C292.53833477 381.60237177 301.20254819 379.63715973 308.53417969 372.2746582 C314.48741769 364.39420789 316.7831399 356.5596256 316.78573608 346.74728394 C316.78870622 346.03414382 316.79167636 345.32100371 316.7947365 344.58625329 C316.80231441 342.22042256 316.79590839 339.8548447 316.78955078 337.48901367 C316.79230351 335.78330315 316.79598512 334.07759392 316.80052185 332.37188721 C316.8086089 328.71061341 316.81080866 325.04940059 316.80857468 321.38811874 C316.80573401 315.59732858 316.82012033 309.80665965 316.83755493 304.01589966 C316.8845142 287.55350545 316.90853067 271.09112036 316.91503906 254.62866211 C316.91878895 245.52756256 316.93680819 236.42660106 316.97013342 227.32556069 C316.99034699 221.57009976 316.99271855 215.81499481 316.98185325 210.05951285 C316.97924644 206.47985762 316.9932478 202.90040987 317.01193428 199.32080841 C317.01725668 197.66239554 317.01575863 196.00394447 317.00689888 194.34554672 C316.99576845 192.07922362 317.0092176 189.81430284 317.02865601 187.54806519 C317.02974554 186.28085066 317.03083508 185.01363613 317.03195763 183.70802116 C317.62712345 179.63926266 318.9934081 177.46849564 321.53417969 174.2746582 C325.52052033 171.55669868 329.87396568 171.48314872 334.53417969 172.2746582 C337.81780603 173.95465308 339.9804911 176.19462647 341.67804241 179.50589085 C342.73053848 182.90968698 342.78906959 185.8225745 342.7948761 189.38743591 C342.79870165 190.09236823 342.80252719 190.79730054 342.80646867 191.52359444 C342.81676719 193.88006383 342.81281242 196.23628812 342.80883789 198.59277344 C342.81318641 200.2850619 342.81837003 201.97734839 342.82432556 203.66963196 C342.83771954 208.26519283 342.83829322 212.86067146 342.83576226 217.45624804 C342.83469167 221.2999888 342.83957877 225.14371298 342.84436768 228.98745018 C342.85546671 238.06619034 342.85589967 247.14488915 342.84985352 256.22363281 C342.8438283 265.56375377 342.8560868 274.90372354 342.87742358 284.2438187 C342.89509877 292.2789011 342.90103119 300.31393565 342.89778584 308.34903675 C342.89598043 313.14045732 342.89853351 317.93177031 342.91250038 322.72317314 C342.9251687 327.23844965 342.92305038 331.75349306 342.91008949 336.2687664 C342.90774268 337.91576215 342.9103894 339.56277474 342.91871262 341.20975113 C343.0127461 361.28313044 338.83045112 377.7341885 325.53417969 393.2746582 C311.25281638 406.00796534 295.45639784 409.59733902 276.80253601 409.53535461 C275.56569889 409.53918016 274.32886178 409.54300571 273.05454475 409.54694718 C269.65167444 409.5554294 266.24902223 409.55506316 262.84615862 409.55076659 C259.16437519 409.54828672 255.48261649 409.55732911 251.80084229 409.56480408 C244.59932366 409.57751845 237.39784238 409.57934883 230.19631442 409.57700381 C224.33904582 409.57521676 218.48178851 409.57697858 212.62452126 409.58122826 C211.78911931 409.58182345 210.95371736 409.58241863 210.09300021 409.58303186 C208.39556632 409.58424368 206.69813243 409.58545782 205.00069854 409.58667424 C189.10108319 409.5975373 173.20148907 409.59539319 157.30187253 409.58928939 C142.77848476 409.58412187 128.25516411 409.59537352 113.73178961 409.61438761 C98.79486351 409.63379217 83.85796912 409.64201739 68.92103034 409.63826436 C60.54484683 409.63635622 52.16872041 409.638802 43.79254723 409.6529789 C36.66137021 409.66492713 29.53028543 409.6662592 22.39910706 409.65418873 C18.7659332 409.64832397 15.13292777 409.64713338 11.4997654 409.65919113 C7.54868618 409.67215078 3.59785854 409.66152841 -0.35322571 409.64888 C-1.48389994 409.65625429 -2.61457418 409.66362857 -3.77951127 409.67122632 C-21.10160381 409.55527141 -36.67907187 404.82220752 -49.28613281 392.5871582 C-61.33077632 379.80861169 -65.77503357 366.77879492 -65.73997498 349.41697693 C-65.74521165 348.13032247 -65.75044833 346.84366801 -65.7558437 345.51802403 C-65.76996642 341.96213954 -65.77168808 338.4063427 -65.77124679 334.85043418 C-65.7729001 331.00906132 -65.78597627 327.16772403 -65.79743958 323.32637024 C-65.82024998 314.93354297 -65.82820606 306.54074106 -65.83326602 298.14788699 C-65.83652795 292.90198883 -65.84305346 287.65609796 -65.85026741 282.41020393 C-65.86982894 267.87045116 -65.88623551 253.33070516 -65.88914394 238.79093838 C-65.88933151 237.86122762 -65.88951908 236.93151686 -65.88971234 235.97363305 C-65.89007858 234.08908117 -65.89044227 232.20452928 -65.89080345 230.3199774 C-65.89098626 229.38455087 -65.89116907 228.44912435 -65.89135742 227.48535156 C-65.89153797 226.54877596 -65.89171852 225.61220036 -65.89190454 224.64724369 C-65.89544408 209.48088436 -65.92245467 194.3146672 -65.95985531 179.14835715 C-65.99799411 163.55724276 -66.01730183 147.96619882 -66.01760346 132.37503678 C-66.01818681 123.62928624 -66.02659952 114.88370529 -66.05560112 106.13799858 C-66.08018979 98.68907156 -66.08734771 91.24037596 -66.07235359 83.79141926 C-66.06521486 79.99601158 -66.06590926 76.20106018 -66.08876419 72.4057045 C-66.20973143 51.02938308 -65.51137118 33.06434479 -50.21582031 16.5246582 C-35.52346178 2.7876324 -19.27347008 -0.03140983 0 0 Z " fill="#000000" transform="translate(85.4658203125,81.725341796875)"/>
<path d="M0 0 C5.19638936 4.48944173 10.04952035 9.31670253 14.89453125 14.1796875 C16.68642946 15.9747637 18.49132646 17.75602779 20.29736328 19.53686523 C31.53239597 30.70996301 39.88790471 41.02652116 39.93408203 57.53491211 C39.1131099 69.29623029 32.28401041 77.79682561 24.16714478 85.80305481 C23.0224853 86.95601588 23.0224853 86.95601588 21.8547014 88.13226908 C19.31714311 90.68334717 16.7656556 93.21999818 14.21386719 95.75683594 C12.3827845 97.59170486 10.55256069 99.42743123 8.72312927 101.26394653 C4.28189711 105.71905864 -0.16993582 110.16342733 -4.62565015 114.60405038 C-9.82037467 119.78185375 -15.00498171 124.96973969 -20.18938227 130.15787657 C-29.44255062 139.41691367 -38.70568134 148.66592023 -47.97412109 157.90966797 C-56.95696411 166.86858271 -65.93133279 175.83588074 -74.89697266 184.81201172 C-84.67478512 194.60124523 -94.45733492 204.38569938 -104.24806941 214.16201037 C-105.29288094 215.20529615 -106.33768977 216.24858463 -107.38249588 217.29187584 C-107.89648888 217.80511102 -108.41048187 218.3183462 -108.94005042 218.84713397 C-112.55324068 222.45559141 -116.163138 226.06732297 -119.77183151 229.68027687 C-124.63194237 234.54584169 -129.50012356 239.40320828 -134.37374687 244.25523758 C-136.15970755 246.03564005 -137.94313711 247.81858575 -139.72382164 249.60426521 C-142.15734258 252.04375464 -144.59993264 254.47379245 -147.04501343 256.90168762 C-147.74522531 257.60790955 -148.44543719 258.31413148 -149.16686761 259.04175407 C-156.05523726 265.84251763 -162.9905869 269.89700523 -172.19091797 272.78491211 C-173.07183105 273.06866699 -173.95274414 273.35242188 -174.86035156 273.64477539 C-177.92440013 274.62290794 -180.99478414 275.57926674 -184.06591797 276.53491211 C-185.29568359 276.92324219 -186.52544922 277.31157227 -187.79248047 277.71166992 C-191.09641956 278.75451242 -194.40471163 279.78245153 -197.71624756 280.80090332 C-199.64463887 281.39563915 -201.57040535 281.99886478 -203.49609375 282.60229492 C-215.03525324 286.09826584 -226.28790014 288.55487523 -237.66748047 283.34350586 C-246.77234111 278.29594717 -252.75940434 271.43667604 -256.06591797 261.53491211 C-259.21790522 248.19404133 -253.89009363 234.85377512 -249.96630859 222.22338867 C-248.94310181 218.91696903 -247.95259092 215.60192883 -246.96435547 212.28491211 C-246.31005489 210.14629389 -245.65386724 208.00825191 -244.99560547 205.87084961 C-244.70676483 204.89659027 -244.41792419 203.92233093 -244.12033081 202.91854858 C-239.05964494 186.90779444 -227.85942849 176.75322817 -216.24804688 165.19946289 C-214.4184475 163.36443746 -212.58969886 161.52856346 -210.76173401 159.69190979 C-206.32773354 155.24020572 -201.88308855 150.79928199 -197.43441726 146.36224361 C-193.81745419 142.75434462 -190.20445136 139.14252322 -186.59418869 135.52791977 C-186.07874307 135.01186122 -185.56329746 134.49580267 -185.03223228 133.96410599 C-183.9848867 132.91548141 -182.93755005 131.86684791 -181.89022224 130.81820558 C-172.0902494 121.00685145 -162.27809753 111.2077514 -152.46167473 101.41285954 C-144.05000257 93.01906677 -135.64888747 84.61482744 -127.25537109 76.20288086 C-117.49042376 66.4165018 -107.71898771 56.63667699 -97.93718469 46.86714351 C-96.89320772 45.82444064 -95.84923904 44.78172946 -94.80527878 43.73900986 C-94.29172148 43.22606966 -93.77816418 42.71312947 -93.24904454 42.18464563 C-89.64072409 38.57977037 -86.03704837 34.97029218 -82.43516922 31.35898209 C-77.58385 26.495239 -72.72196886 21.64226961 -67.85290337 16.79629326 C-66.0697091 15.01837959 -64.28989437 13.23706879 -62.51376152 11.45210075 C-60.08510764 9.01248363 -57.64441237 6.58557194 -55.2003479 4.16140747 C-54.50373098 3.45586766 -53.80711406 2.75032786 -53.08938754 2.02340806 C-37.11735853 -13.69808759 -17.13423217 -13.90835252 0 0 Z M-34.81591797 18.40991211 C-35.67314453 19.23104492 -36.53037109 20.05217773 -37.41357422 20.89819336 C-38.28884766 21.76831055 -39.16412109 22.63842773 -40.06591797 23.53491211 C-40.93087891 24.3740918 -41.79583984 25.21327148 -42.68701172 26.07788086 C-47.08467218 30.39521876 -51.2582682 34.8246771 -55.26123047 39.50756836 C-58.68535085 43.35414515 -62.38842127 46.93246636 -66.06591797 50.53491211 C-61.37770863 56.17059872 -56.36606388 61.36595177 -51.16748047 66.53100586 C-49.91504044 67.78132347 -49.91504044 67.78132347 -48.63729858 69.05690002 C-45.99085949 71.69777735 -43.34095038 74.33514107 -40.69091797 76.97241211 C-38.88730153 78.7710086 -37.08391372 80.56983438 -35.28076172 82.36889648 C-30.87845536 86.76022459 -26.47330083 91.1486794 -22.06591797 95.53491211 C-17.35186798 91.59593943 -12.8813873 87.49920127 -8.54638672 83.14819336 C-7.96174149 82.56450485 -7.37709625 81.98081635 -6.7747345 81.37944031 C-5.55261543 80.15799599 -4.33173507 78.9353111 -3.11206055 77.71142578 C-1.24429633 75.83826411 0.62880081 73.9705533 2.50244141 72.10327148 C3.6948198 70.91023294 4.8868883 69.71688459 6.07861328 68.52319336 C6.91607841 67.68876457 6.91607841 67.68876457 7.77046204 66.83747864 C12.51916869 62.10654589 12.51916869 62.10654589 14.49658203 55.84741211 C14.16173265 46.58705883 1.33534789 37.75004041 -4.90991211 31.50561523 C-6.764942 29.64837434 -8.61179214 27.78324007 -10.45849609 25.91772461 C-11.64355387 24.72973652 -12.8290839 23.54221928 -14.01513672 22.35522461 C-14.56312424 21.80005157 -15.11111176 21.24487854 -15.67570496 20.67288208 C-19.32607322 17.04420901 -21.88867871 14.80562704 -27.01904297 14.16772461 C-30.83753872 14.6279023 -32.07626963 15.75300483 -34.81591797 18.40991211 Z M-87.60502893 71.92629337 C-88.10910183 72.43055064 -88.61317474 72.93480791 -89.13252258 73.4543457 C-89.6655001 73.98364654 -90.19847762 74.51294737 -90.74760598 75.05828762 C-92.5479541 76.84754874 -94.34464538 78.64043781 -96.14135742 80.43334961 C-97.42545108 81.71118215 -98.70973696 82.98882155 -99.99420166 84.26628113 C-103.49492167 87.74955282 -106.99217654 91.23628277 -110.48829675 94.72417068 C-112.67214681 96.90287631 -114.85646165 99.08111502 -117.04088402 101.25924683 C-123.87359509 108.07289098 -130.70388257 114.88895327 -137.5312255 121.70797634 C-145.41432 129.58130664 -153.30560803 137.4463026 -161.20401794 145.30426788 C-167.3053581 151.37543507 -173.39898979 157.45427042 -179.4869172 163.53888702 C-183.12404039 167.17366013 -186.76439085 170.80505582 -190.41289711 174.42840576 C-193.84847765 177.84068173 -197.27438129 181.26238589 -200.69319153 184.69146156 C-201.94741686 185.94618185 -203.20505017 187.19750649 -204.46637535 188.44508934 C-206.19315461 190.15410805 -207.9070247 191.87514749 -209.61836243 193.59960938 C-210.11574317 194.08602087 -210.61312391 194.57243237 -211.12557679 195.0735836 C-215.95003455 199.98732457 -218.74729848 205.85473345 -220.74511719 212.38696289 C-221.14475174 213.67837692 -221.14475174 213.67837692 -221.55245972 214.99588013 C-221.82244781 215.89821381 -222.09243591 216.80054749 -222.37060547 217.73022461 C-222.65823761 218.68130096 -222.94586975 219.63237732 -223.24221802 220.61227417 C-223.84273158 222.60953778 -224.43918099 224.60802747 -225.03173828 226.60766602 C-225.94193892 229.66333958 -226.87841045 232.7101786 -227.81591797 235.75756836 C-228.39827432 237.70630158 -228.97905859 239.65550545 -229.55810547 241.60522461 C-229.84023895 242.51160675 -230.12237244 243.41798889 -230.41305542 244.35183716 C-231.87878761 249.41292806 -232.52088715 252.5949761 -230.06591797 257.53491211 C-228.40796249 259.82446967 -227.48288324 260.41936967 -224.75091553 261.17640686 C-221.86912816 261.56118781 -220.1849176 261.28541908 -217.41845703 260.45849609 C-216.52692932 260.19749619 -215.63540161 259.93649628 -214.71685791 259.66758728 C-213.28862701 259.22872948 -213.28862701 259.22872948 -211.83154297 258.78100586 C-210.8389447 258.48307632 -209.84634644 258.18514679 -208.82366943 257.87818909 C-206.72394666 257.2440949 -204.62601428 256.60404596 -202.52978516 255.95849609 C-199.34687245 254.98190961 -196.15646167 254.03368414 -192.96435547 253.08764648 C-190.91956414 252.46630997 -188.87527591 251.8433149 -186.83154297 251.21850586 C-185.88748596 250.94010361 -184.94342896 250.66170135 -183.97076416 250.37486267 C-183.06662781 250.09179764 -182.16249146 249.8087326 -181.23095703 249.51708984 C-180.05777924 249.1594883 -180.05777924 249.1594883 -178.86090088 248.79466248 C-168.97520708 244.33899789 -161.80427384 236.6851456 -154.29418945 229.10375977 C-153.03243929 227.84116209 -151.7700256 226.5792272 -150.50700378 225.31790161 C-147.10007063 221.91182499 -143.70243104 218.49661504 -140.3064487 215.07962465 C-136.74844465 211.50279668 -133.18187547 207.93452968 -129.6162262 204.36532593 C-122.87436844 197.61416447 -116.14019109 190.85539602 -109.40877444 184.0938257 C-101.74114852 176.39260358 -94.06494617 168.6999543 -86.38802993 161.00799489 C-70.60446604 145.19311993 -54.83164306 129.36756909 -39.06591797 113.53491211 C-42.34183574 109.65743491 -45.62990098 105.84586997 -49.21948242 102.25195312 C-49.97659012 101.49169327 -50.73369781 100.73143341 -51.51374817 99.94813538 C-52.70939644 98.75552345 -52.70939644 98.75552345 -53.92919922 97.53881836 C-55.17808174 96.28850075 -55.17808174 96.28850075 -56.45219421 95.01292419 C-58.19989264 93.26454883 -59.94884026 91.51742137 -61.69897461 89.77148438 C-64.39081425 87.08504067 -67.07722584 84.39325089 -69.76318359 81.70092773 C-71.46403455 80.00073684 -73.1651953 78.30085579 -74.86669922 76.60131836 C-75.67391922 75.79207413 -76.48113922 74.9828299 -77.31282043 74.14906311 C-78.05416733 73.41086838 -78.79551422 72.67267365 -79.55932617 71.91210938 C-80.21407425 71.25815689 -80.86882233 70.60420441 -81.54341125 69.93043518 C-84.41373399 67.29950977 -85.19574144 69.54056682 -87.60502893 71.92629337 Z " fill="#000000" transform="translate(453.06591796875,31.465087890625)"/>
<path d="M0 0 C1.20853638 -0.00571014 2.41707275 -0.01142029 3.66223145 -0.01730347 C5.00350942 -0.0185488 6.34478751 -0.0196739 7.68606567 -0.02069092 C9.09709808 -0.02531968 10.50812924 -0.03034442 11.91915894 -0.03573608 C15.75390498 -0.04885561 19.58863352 -0.05530404 23.42339849 -0.05974674 C25.8190125 -0.06267789 28.21462171 -0.06678276 30.61023331 -0.07125092 C38.10509242 -0.08492401 45.5999406 -0.09459187 53.09481132 -0.09845281 C61.74759754 -0.10293473 70.40022588 -0.12048955 79.05296409 -0.1494534 C85.74094876 -0.17106383 92.42888898 -0.18115673 99.11690819 -0.18249393 C103.1116398 -0.18354232 107.10622296 -0.18945744 111.10091782 -0.20731354 C114.8585639 -0.22378349 118.61594978 -0.2259551 122.37361908 -0.21717453 C123.75187756 -0.2164036 125.13014997 -0.22075431 126.50837326 -0.23063278 C128.3916074 -0.2433382 130.27494594 -0.23568886 132.15820312 -0.22705078 C133.21160322 -0.22851734 134.26500332 -0.2299839 135.35032463 -0.2314949 C139.50231603 0.30926415 142.13749051 2.01818415 144.99514771 5.01934814 C147.18571048 8.85636616 146.69946116 12.85988429 146.20608521 17.14044189 C144.88068139 20.80479361 143.79371394 21.8006633 140.43093872 23.74508667 C134.76584509 26.04846329 128.68618604 25.55732192 122.67092896 25.52862549 C121.30195701 25.53269546 119.93298836 25.53803972 118.56402588 25.54455566 C114.86152655 25.55818466 111.15927916 25.55294904 107.45677567 25.54341841 C103.57364496 25.53579881 99.69053516 25.54287379 95.80740356 25.5475769 C89.28758897 25.55302778 82.76787647 25.54586044 76.24807739 25.53155518 C68.72092601 25.5152299 61.19401845 25.52051888 53.66687298 25.53703439 C47.19276951 25.55066836 40.71873924 25.5525596 34.24462605 25.54471838 C30.38293273 25.54005235 26.52135384 25.53938746 22.65966797 25.54932785 C19.02832558 25.55802315 15.39729614 25.55192927 11.7659874 25.53464508 C9.80527928 25.52881587 7.84454456 25.53767388 5.8838501 25.54702759 C-0.42145478 25.50172815 -5.27893146 25.32931471 -10.79391479 22.14044189 C-14.24950613 18.46190918 -14.35719999 14.43457772 -14.21969604 9.58575439 C-13.51723915 5.55146065 -11.80095791 3.86776007 -8.79391479 1.14044189 C-5.61120623 0.07953904 -3.34444588 0.00945104 0 0 Z " fill="#000000" transform="translate(109.79391479492188,401.85955810546875)"/>
<path d="M0 0 C1.26496307 -0.00960754 2.52992615 -0.01921509 3.83322144 -0.02911377 C5.21579813 -0.03396169 6.59837693 -0.03824053 7.98095703 -0.04199219 C9.39958701 -0.04774609 10.81821697 -0.0535038 12.23684692 -0.05926514 C15.21096152 -0.06976608 18.18504916 -0.07561471 21.15917969 -0.07910156 C24.96456243 -0.08458541 28.7695872 -0.10861451 32.57485771 -0.13707352 C35.50543246 -0.15572433 38.43592137 -0.16090678 41.36655045 -0.16243744 C42.76914553 -0.16545884 44.1717393 -0.17347011 45.57427597 -0.18662262 C47.53902828 -0.20373273 49.50392866 -0.19995088 51.46875 -0.1953125 C52.58555145 -0.19895813 53.70235291 -0.20260376 54.85299683 -0.20635986 C59.10734076 0.31292219 61.72707559 1.96735599 64.65283203 5.04003906 C66.8433948 8.87705708 66.35714549 12.88057521 65.86376953 17.16113281 C64.53871706 20.82451317 63.45195181 21.82096049 60.09033203 23.76513672 C54.42269482 26.07432922 48.32061284 25.58871207 42.30126953 25.55957031 C40.99601318 25.56244049 39.69075684 25.56531067 38.34594727 25.56826782 C35.59233869 25.57267299 32.83902349 25.56631912 30.08544922 25.55224609 C26.57175845 25.53515477 23.05875532 25.54500577 19.54508972 25.56296349 C16.17209586 25.57646608 12.79928287 25.56698736 9.42626953 25.55957031 C8.17193115 25.56564301 6.91759277 25.5717157 5.62524414 25.57797241 C-0.70280969 25.52717878 -5.60166996 25.3620186 -11.13623047 22.16113281 C-14.5918218 18.4826001 -14.69951566 14.45526864 -14.56201172 9.60644531 C-13.85955482 5.57215156 -12.14327358 3.88845098 -9.13623047 1.16113281 C-5.86709903 0.07142233 -3.44139395 0.02107033 0 0 Z " fill="#000000" transform="translate(110.13623046875,345.8388671875)"/>
</svg>
